# xmcd
#
# Track frame offsets:
#	150
#	38989
#	67626
#	86118
#	120731
#	134841
#	172243
#	206596
#
# Disc length: 3370 seconds
#
# Revision: 1
# Processed by: cddbd v1.5.2PL0 Copyright (c) Steve Scherf et al.
# Submitted via: audiograbber 1.83.01
#
DISCID=760d2808
DTITLE=Assembly Of Dust - 12-31-05 Paradise Rock Club CD1
DYEAR=2005
DGENRE=Country
TTITLE0=Mama
TTITLE1=Love Junkie
TTITLE2=Paul Henry
TTITLE3=Lost And Amazed
TTITLE4=Sidestep Blue
TTITLE5=Revelry
TTITLE6=45 Degrees
TTITLE7=So Well
EXTD=
EXTT0=
EXTT1=
EXTT2=
EXTT3=
EXTT4=
EXTT5=
EXTT6=
EXTT7=
PLAYORDER=
